<?xml version="1.0" standalone="no"?>
<!DOCTYPE svg PUBLIC "-//W3C//DTD SVG 20010904//EN"
 "http://www.w3.org/TR/2001/REC-SVG-20010904/DTD/svg10.dtd">
<svg version="1.0" xmlns="http://www.w3.org/2000/svg"
 width="100.000000pt" height="100.000000pt" viewBox="0 0 100.000000 100.000000"
 preserveAspectRatio="xMidYMid meet">
<metadata>
Created by potrace 1.14, written by Peter Selinger 2001-2017
</metadata>
<g transform="translate(0.000000,100.000000) scale(0.100000,-0.100000)"
fill="#000000" stroke="none">
<path d="M765 842 c-1 -1 -94 -5 -206 -8 -112 -3 -244 -6 -294 -8 l-90 -3 3
-139 c1 -76 5 -169 8 -206 l6 -67 -86 -112 c-47 -61 -86 -120 -86 -130 0 -29
29 -37 110 -34 276 13 716 26 811 25 35 0 41 18 23 77 -9 26 -18 59 -20 73 -3
14 -9 41 -15 61 -5 20 -9 99 -9 175 1 189 0 223 -9 264 l-7 35 -68 0 c-37 0
-69 -1 -71 -3z"/>
</g>
</svg>
